# xmcd
#
# Track frame offsets:
#	150
#	12607
#	32775
#	48353
#	67765
#	84327
#	101745
#	121986
#	140201
#	143293
#	164686
#	182793
#	203479
#	218268
#	240068
#	256908
#	259373
#	276944
#	301387
#
# Disc length: 4175 seconds
#
# Revision: 0
# Processed by: cddbd v1.5.1PL2 Copyright (c) Steve Scherf et al.
# Submitted via: EasyCDDAExtractor 8.1.2.3
#
DISCID=05104d13
DTITLE=Ras Kass - Institutionalized
DYEAR=2005
DGENRE=Rap
TTITLE0=MTV News Intro ft. Sway
TTITLE1=Air Em Out
TTITLE2=Slap Season ft. Jelly Rolls
TTITLE3=Flood
TTITLE4=Expect Me ft. Xzibit
TTITLE5=Put Ya Glass Out ft. Killer Mi
TTITLE6=Write Where I Left Off ft. E-4
TTITLE7=Shine ft. Vis A Vis
TTITLE8=Clayton Bixby Skit 1
TTITLE9=No Love ft. Xavier
TTITLE10=More
TTITLE11=Life and Bullshit
TTITLE12=My Apology ft. Rick Rock
TTITLE13=U Ain't Me ft. Krondon, Xzibit
TTITLE14=Look Alive ft. Young Buck and St
TTITLE15=Clayton Bixby Skit 2
TTITLE16=Unconditional ft. Mystic
TTITLE17=We Run the Streets
TTITLE18=Welcome Home
EXTD=
EXTT0=
EXTT1=
EXTT2=
EXTT3=
EXTT4=
EXTT5=
EXTT6=
EXTT7=
EXTT8=
EXTT9=
EXTT10=
EXTT11=
EXTT12=
EXTT13=
EXTT14=
EXTT15=
EXTT16=
EXTT17=
EXTT18=
PLAYORDER=
